<svg class="u-icon u-icon--logo" viewBox="0 0 178 38" xmlns="http://www.w3.org/2000/svg">
    <path d="M149.38 11.93C149.38 13.05 148.31 13.96 147 13.96H138.74C137.25 13.96 136.36 12.93 136.36 11.93V0.539993H132.27V11.95C132.27 13.47 132.96 14.89 134.2 15.96C135.42 17 137.05 17.58 138.77 17.58H147.01C150.58 17.58 153.49 15.06 153.49 11.96V0.539993H149.4V11.93H149.38Z"/>
    <path d="M27.7 15.96C28.92 17 30.55 17.58 32.27 17.58H40.51C44.08 17.58 46.98 15.06 46.98 11.96V0.539993H42.89V11.92C42.89 13.04 41.82 13.95 40.51 13.95H32.25C30.76 13.95 29.87 12.92 29.87 11.92V0.539993H25.78V11.95C25.77 13.47 26.45 14.9 27.7 15.96Z"/>
    <path d="M73.53 6.10999L87.06 17.53L87.16 17.61H90.51V0.549988H86.68V12.13L73.15 0.609988L73.08 0.549988H69.69V17.61H73.53V6.10999Z"/>
    <path d="M110.47 30.26H124.54V26.72H110.47V23.75H127.41V20.21H106.43L106.44 37.01V37.26H127.39L127.41 33.52H110.46L110.47 30.26Z"/>
    <path d="M159.96 6.80999L165.36 13.03H167.96L173.36 6.80999V17.61H177.2V0.549988H174.03L166.67 9.00999L159.39 0.639988L159.31 0.549988H156.12V17.61H159.96V6.80999Z"/>
    <path d="M141.91 28.67L134.63 20.29L134.56 20.21H131.36V37.26H135.2V26.47L140.6 32.69H143.2L148.6 26.47V37.26H152.44V20.21H149.27L141.91 28.67Z"/>
    <path d="M76.8 23.69H88.17V37.22H92.36V23.69H103.73V20.16H76.8V23.69Z"/>
    <path d="M106.54 17.61H110.44L110.43 0.789993V0.539993L94.58 0.549993H94.38L92.03 4.20999H106.54V17.61Z"/>
    <path d="M15.73 20.16H6.72001C5.21 20.16 3.78001 20.69 2.69001 21.67C1.59001 22.65 0.990005 23.95 0.990005 25.33C0.990005 26.67 1.58001 27.98 2.62001 28.93L2.75001 29.05C3.76001 29.95 5.24001 30.49 6.72001 30.49H15.73C16.7 30.49 17.49 31.18 17.49 32.03C17.49 32.91 16.7 33.59 15.7 33.59H6.72001C5.75 33.59 4.96001 32.9 4.96001 32.05V31.7H0.990005V32.05C0.990005 34.9 3.57001 37.21 6.75001 37.21H15.73C18.89 37.21 21.46 34.89 21.46 32.05C21.46 30.67 20.86 29.37 19.76 28.38C18.67 27.4 17.24 26.86 15.73 26.86H6.72001C5.75 26.86 4.96001 26.17 4.96001 25.32C4.96001 24.49 5.78001 23.78 6.75001 23.78H15.73C16.69 23.78 17.48 24.46 17.52 25.34L17.54 25.68H21.46V25.33C21.46 22.48 18.89 20.16 15.73 20.16Z"/>
    <path d="M67.89 20.16H58.88C57.37 20.16 55.94 20.69 54.85 21.67C53.75 22.65 53.15 23.95 53.15 25.33C53.15 26.67 53.74 27.98 54.78 28.93L54.91 29.05C55.92 29.95 57.4 30.49 58.88 30.49H67.89C68.86 30.49 69.65 31.18 69.65 32.03C69.65 32.91 68.86 33.59 67.86 33.59H58.88C57.91 33.59 57.12 32.9 57.12 32.05V31.7H53.15V32.05C53.15 34.9 55.73 37.21 58.91 37.21H67.89C71.05 37.21 73.62 34.89 73.62 32.05C73.62 30.67 73.02 29.37 71.92 28.38C70.83 27.4 69.4 26.86 67.89 26.86H58.88C57.91 26.86 57.12 26.17 57.12 25.32C57.12 24.49 57.94 23.78 58.91 23.78H67.89C68.85 23.78 69.64 24.46 69.68 25.34L69.7 25.68H73.62V25.33C73.62 22.48 71.05 20.16 67.89 20.16Z"/>
    <path d="M161.91 23.79H171.44C172.47 23.79 173.32 24.47 173.36 25.35L173.38 25.68H177.5V25.33C177.5 22.48 174.78 20.17 171.44 20.17H161.88C160.28 20.17 158.77 20.7 157.62 21.67C156.46 22.65 155.81 23.95 155.81 25.34C155.81 26.68 156.44 28 157.54 28.95L157.68 29.07C158.75 29.97 160.31 30.51 161.87 30.51H171.43C172.47 30.51 173.32 31.2 173.32 32.05C173.32 32.93 172.48 33.61 171.4 33.61H161.87C160.83 33.61 159.98 32.92 159.98 32.07V31.7H155.81V32.05C155.81 34.9 158.54 37.21 161.9 37.21H171.43C174.77 37.21 177.49 34.89 177.49 32.05C177.49 30.67 176.85 29.36 175.69 28.37C174.54 27.4 173.03 26.86 171.43 26.86H161.87C160.83 26.86 159.98 26.17 159.98 25.32C159.99 24.49 160.86 23.79 161.91 23.79Z"/>
    <path d="M37.16 26.7L28.81 20.16H22.53L35.18 30.08V37.22H39.17V30.05L51.82 20.16H45.52L37.16 26.7Z"/>
    <path d="M112.34 0.539993L112.33 17.35V17.61H116.22V4.20999H130.74L128.39 0.549993L112.34 0.539993Z"/>
    <path d="M58.22 9.25999H62.8L67.85 0.599991H62.75L57.96 8.80999H53.38L48.32 17.47H53.43L58.22 9.25999Z"/>
    <path d="M9.89 17.57H13.83C15.41 17.57 17.03 17.14 18.41 16.35L20.97 18.02L23.07 15.11L21.15 13.83C22.27 12.31 22.76 10.86 22.78 9.04999C22.8 6.89999 21.93 4.82999 20.33 3.20999C18.61 1.46999 16.3 0.509995 13.83 0.509995H9.92C4.98 0.509995 0.970001 4.33999 0.970001 9.03999C0.970001 13.74 4.97 17.57 9.89 17.57ZM6.27 5.46999C7.26 4.56999 8.59 4.04999 9.92 4.04999H13.83C15.17 4.04999 16.51 4.56999 17.5 5.47999C18.52 6.41999 19.08 7.67999 19.08 9.01999C19.08 10.02 18.71 11.04 18.09 11.8L15.54 10.14L13.28 12.89L14.55 13.72C14.1 13.89 13.61 13.97 13.1 13.97H9.97C8.51 13.97 7.15 13.43 6.15 12.45C5.21 11.53 4.67 10.28 4.67 9.03999C4.67 7.68999 5.23 6.41999 6.27 5.46999Z"/>
</svg>